<?xml version="1.0" encoding="utf-8"?>
<!-- Generator: Adobe Illustrator 16.0.3, SVG Export Plug-In . SVG Version: 6.00 Build 0)  -->
<!DOCTYPE svg PUBLIC "-//W3C//DTD SVG 1.1//EN" "http://www.w3.org/Graphics/SVG/1.1/DTD/svg11.dtd">
<svg version="1.1" id="Layer_1" xmlns="http://www.w3.org/2000/svg" xmlns:xlink="http://www.w3.org/1999/xlink" x="0px" y="0px"
	 width="81.975px" height="30.275px" viewBox="0 0 81.975 30.275" enable-background="new 0 0 81.975 30.275" xml:space="preserve">
<g>
	<path fill="#FFFFFF" d="M38.16,0.35v14.83c0,3.13-1.771,6.43-7.101,6.43c-4.8,0-7.12-2.479-7.12-6.42V0.35h4.37V14.9
		c0,2.561,1.101,3.58,2.7,3.58c1.92,0,2.8-1.27,2.8-3.6V0.36h4.36L38.16,0.35z M45.27,21.6c-5.399,0-6.43-3.18-6.2-6.8h4.381
		c0,2,0.1,3.68,2.5,3.68c1.47,0,2.199-0.96,2.199-2.38c0-3.76-8.8-4-8.8-10.22C39.31,2.6,40.88,0,46.22,0
		c4.26,0,6.37,1.899,6.08,6.28h-4.25c0-1.561-0.26-3.15-2.021-3.15c-1.42,0-2.26,0.78-2.26,2.229c0,3.96,8.8,3.62,8.8,10.2
		c0,5.4-3.97,6.05-7.3,6.05V21.6z M74.67,21.6c-5.4,0-6.43-3.18-6.2-6.8h4.38c0,2,0.101,3.68,2.5,3.68c1.47,0,2.2-0.96,2.2-2.38
		c0-3.76-8.8-4-8.8-10.22C68.74,2.6,70.3,0,75.62,0C79.9,0,82,1.9,81.7,6.281h-4.25c0-1.561-0.261-3.15-2.021-3.15
		c-1.42,0-2.26,0.78-2.26,2.229c0,3.96,8.8,3.62,8.8,10.2c0,5.4-3.96,6.05-7.3,6.05V21.6z M60.74,13.47h2.579v4.6L63.1,18.17
		c-0.66,0.22-1.439,0.399-2.17,0.399c-2.5,0-3.13-1.159-3.13-7.699c0-4.061,0-7.74,2.729-7.74c2.101,0,2.561,1.43,2.601,3.15h4.36
		C67.5,2.23,64.9,0,60.8,0c-7.17,0-7.43,5.359-7.43,10.63c0,7.939,0.859,11.02,8.22,11.02c1.7,0,4.4-0.399,5.67-0.729
		c0.07-0.021,0.2-0.101,0.2-0.22c0-0.561,0-10.4,0-10.4h-6.73v3.17H60.74z"/>
</g>
<g>
	<path fill="#FFFFFF" d="M1.08,27.67C1.04,27.84,1.01,28,1.04,28.12c0.029,0.12,0.13,0.17,0.33,0.17c0.199,0,0.399-0.141,0.46-0.4
		C2,27.14,0.15,27.3,0.4,26.14c0.17-0.8,1-1.04,1.67-1.04c0.7,0,1.271,0.33,1.04,1.13h-1c0.061-0.26,0.061-0.399,0-0.479
		c-0.05-0.061-0.13-0.08-0.239-0.08c-0.23,0-0.38,0.149-0.44,0.399c-0.12,0.58,1.7,0.551,1.45,1.74c-0.14,0.65-0.771,1.13-1.63,1.13
		c-0.9,0-1.45-0.229-1.17-1.26h1V27.67z M5.5,26.48c0.1-0.55,0-0.729-0.3-0.729c-0.45,0-0.57,0.399-0.74,1.16
		c-0.23,1.13-0.2,1.37,0.2,1.37c0.3,0,0.529-0.301,0.63-0.771H6.3c-0.2,1-0.85,1.43-1.8,1.43c-1.34,0-1.34-0.8-1.101-1.96
		c0.221-1,0.551-1.88,1.9-1.88c0.96,0,1.4,0.42,1.2,1.38H5.5z M7.6,28.86h-1l0.79-3.699H8.4L7.6,28.86z M8.7,23.76l-0.181,0.8H7.5
		l0.17-0.8H8.7z M55.84,28.86H54.8l0.8-3.699h1.021L55.84,28.86z M56.92,23.76l-0.17,0.8h-1.03l0.17-0.8h1.021H56.92z M9.6,27.18
		c-0.1,0.43-0.22,1.101,0.23,1.101c0.37,0,0.52-0.36,0.58-0.66h1.06c-0.1,0.399-0.3,0.729-0.6,0.949
		c-0.301,0.23-0.681,0.36-1.17,0.36c-1.341,0-1.341-0.8-1.101-1.97c0.22-1,0.55-1.87,1.9-1.87c1.399,0,1.359,0.9,1.069,2.08H9.6
		V27.18z M10.66,26.6c0.08-0.359,0.199-0.87-0.301-0.87c-0.46,0-0.569,0.561-0.64,0.87H10.66z M13.52,25.54
		c0.3-0.33,0.601-0.45,0.98-0.45c0.5,0,0.85,0.3,0.75,0.8l-0.63,2.96H13.6l0.53-2.55c0.07-0.3,0.06-0.57-0.271-0.57
		c-0.319,0-0.439,0.261-0.5,0.58l-0.55,2.561H11.8l0.8-3.7h1.021l-0.08,0.38L13.52,25.54z M17.6,26.48
		c0.12-0.55,0.021-0.729-0.3-0.729c-0.44,0-0.56,0.399-0.72,1.16c-0.24,1.13-0.2,1.37,0.199,1.37c0.301,0,0.521-0.301,0.631-0.771
		h1.04c-0.221,1-0.851,1.43-1.801,1.43c-1.34,0-1.35-0.8-1.1-1.96c0.2-1,0.54-1.88,1.9-1.88c0.949,0,1.399,0.42,1.199,1.38H17.6z
		 M19.96,27.18c-0.101,0.43-0.22,1.101,0.24,1.101c0.359,0,0.5-0.36,0.569-0.66h1.05c-0.1,0.399-0.3,0.729-0.6,0.949
		c-0.3,0.23-0.68,0.36-1.16,0.36c-1.33,0-1.34-0.8-1.1-1.97c0.22-1,0.55-1.87,1.899-1.87c1.4,0,1.36,0.9,1.08,2.08H19.96V27.18z
		 M21.03,26.6c0.07-0.359,0.2-0.87-0.3-0.87c-0.47,0-0.58,0.561-0.64,0.87h0.93H21.03z M26.26,24.4c-0.4-0.029-0.53,0.141-0.6,0.5
		l-0.08,0.271h0.479l-0.14,0.63h-0.48l-0.649,3.06h-1.04L24.4,25.8H23.95l0.14-0.63h0.45c0.2-0.93,0.399-1.44,1.5-1.44
		c0.1,0,0.229,0,0.35,0.021L26.25,24.4H26.26z M25.93,26.96c0.22-1,0.55-1.87,1.9-1.87c1.35,0,1.33,0.86,1.12,1.86
		c-0.25,1.159-0.601,1.97-1.931,1.97s-1.33-0.8-1.1-1.96H25.93z M27.93,26.91c0.16-0.761,0.2-1.15-0.229-1.15
		c-0.431,0-0.561,0.4-0.721,1.16c-0.239,1.13-0.2,1.37,0.181,1.37c0.38,0,0.529-0.24,0.77-1.36V26.91z M30.8,25.17l-0.1,0.47
		c0.3-0.42,0.67-0.55,1.079-0.55l-0.199,0.9c-0.9-0.04-1,0.479-1.101,0.85l-0.42,2h-1.03l0.79-3.68h0.971L30.8,25.17z M35.7,28.17
		c-0.04,0.229-0.061,0.46-0.101,0.7h-0.95l0.061-0.5c-0.3,0.38-0.641,0.56-1.08,0.56c-0.72,0-0.87-0.53-0.73-1.18
		c0.25-1.22,1.2-1.271,2.15-1.25l0.06-0.3c0.08-0.301,0.101-0.53-0.3-0.53c-0.35,0-0.43,0.27-0.5,0.56h-1
		c0.101-0.439,0.3-0.729,0.57-0.899c0.27-0.17,0.62-0.23,1-0.23c1.32,0,1.37,0.561,1.229,1.23l-0.399,1.84H35.7z M33.9,27.71
		c-0.05,0.27-0.08,0.6,0.261,0.6c0.6,0,0.699-0.819,0.77-1.229c-0.52,0.029-0.9-0.021-1.03,0.64V27.71z M39.78,26.48
		c0.12-0.55,0.021-0.729-0.3-0.729c-0.439,0-0.56,0.399-0.72,1.16c-0.24,1.13-0.2,1.37,0.18,1.37c0.33,0,0.54-0.301,0.641-0.771
		h1.04c-0.221,1-0.851,1.43-1.801,1.43c-1.35,0-1.35-0.8-1.1-1.96c0.2-1,0.54-1.88,1.9-1.88c0.949,0,1.399,0.42,1.199,1.38H39.78z
		 M47.25,28.17c-0.05,0.229-0.07,0.46-0.101,0.7H46.2l0.06-0.5h-0.02c-0.301,0.38-0.641,0.56-1.08,0.56
		c-0.721,0-0.87-0.53-0.73-1.18c0.26-1.22,1.2-1.271,2.17-1.25l0.061-0.3c0.069-0.301,0.069-0.53-0.301-0.53
		c-0.359,0-0.449,0.27-0.5,0.56h-1.02c0.1-0.439,0.3-0.729,0.57-0.899c0.279-0.17,0.63-0.23,1.029-0.23
		c1.301,0,1.351,0.561,1.2,1.23l-0.38,1.84H47.25z M45.45,27.71c-0.061,0.27-0.08,0.6,0.25,0.6c0.6,0,0.699-0.819,0.77-1.229
		c-0.5,0.029-0.88-0.021-1.02,0.64V27.71z M49.5,25.54h0.029c0.271-0.33,0.57-0.45,0.961-0.45c0.479,0,0.85,0.3,0.739,0.8
		l-0.63,2.96h-1l0.54-2.55c0.07-0.3,0.07-0.57-0.26-0.57s-0.44,0.261-0.5,0.58l-0.55,2.561H47.8l0.78-3.7h1.029l-0.1,0.38
		L49.5,25.54z M54.85,25.17l-0.8,3.84c-0.07,0.271-0.271,1.28-1.7,1.28c-0.75,0-1.37-0.2-1.2-1.101h1
		c-0.02,0.15-0.029,0.301,0.021,0.37c0.04,0.101,0.149,0.15,0.3,0.15c0.271,0,0.44-0.24,0.521-0.62l0.14-0.7
		c-0.23,0.28-0.55,0.43-0.9,0.43c-1.12,0-0.85-1.029-0.67-1.859c0.17-0.82,0.4-1.851,1.48-1.851c0.359,0,0.64,0.16,0.72,0.5
		l0.1-0.43h0.98L54.85,25.17z M52.75,28.17c0.38,0,0.52-0.4,0.68-1.17c0.17-0.8,0.24-1.271-0.14-1.271c-0.4,0-0.53,0.271-0.761,1.4
		C52.45,27.47,52.25,28.17,52.75,28.17z M58.3,25.54h0.02c0.271-0.33,0.57-0.45,0.96-0.45c0.5,0,0.86,0.3,0.75,0.8l-0.63,2.96H58.37
		l0.54-2.55c0.08-0.3,0.08-0.57-0.25-0.57s-0.44,0.261-0.5,0.58L57.61,28.87H56.58l0.779-3.7h1.03l-0.08,0.38L58.3,25.54z
		 M63.64,25.17l-0.8,3.84c-0.07,0.271-0.271,1.28-1.7,1.28c-0.75,0-1.37-0.2-1.2-1.101h1c-0.02,0.15-0.029,0.301,0.021,0.37
		c0.04,0.101,0.149,0.15,0.3,0.15c0.27,0,0.44-0.24,0.52-0.62l0.15-0.7c-0.229,0.28-0.55,0.43-0.9,0.43
		c-1.119,0-0.85-1.029-0.67-1.859c0.17-0.82,0.4-1.851,1.48-1.851c0.36,0,0.65,0.16,0.72,0.5l0.101-0.43h0.979V25.17z M61.54,28.17
		c0.38,0,0.52-0.4,0.68-1.17c0.18-0.8,0.24-1.271-0.14-1.271c-0.4,0-0.5,0.271-0.75,1.4c-0.08,0.34-0.28,1.04,0.22,1.04H61.54z
		 M65.25,25.17h1.02l-0.08,2.77l1.23-2.77h1.1v2.77h0.03l1.12-2.77h1l-1.76,3.7h-1.08l-0.101-2.46h-0.02l-1.24,2.46h-1.1l-0.13-3.7
		H65.25z M70.46,26.96c0.22-1,0.54-1.87,1.899-1.87c1.36,0,1.33,0.86,1.101,1.86c-0.23,1.159-0.58,1.97-1.9,1.97
		C70.22,28.92,70.22,28.12,70.46,26.96z M72.46,26.91c0.16-0.761,0.2-1.15-0.24-1.15c-0.43,0-0.55,0.4-0.72,1.16
		c-0.24,1.13-0.2,1.37,0.2,1.37c0.369,0,0.52-0.24,0.75-1.36L72.46,26.91z M75.38,25.17l-0.101,0.47
		c0.301-0.42,0.671-0.55,1.08-0.55l-0.199,0.9c-0.881-0.04-1,0.479-1.101,0.85l-0.42,2H73.6l0.8-3.68h0.98V25.17z M43.57,25.1
		c-0.399,0-0.699,0.101-0.97,0.44l0.37-1.8h-1.03l-1.1,5.119h1.04l0.54-2.55c0.07-0.319,0.2-0.569,0.52-0.569
		c0.32,0,0.33,0.25,0.261,0.579l-0.54,2.561h1.029l0.62-2.96c0.101-0.5-0.26-0.8-0.75-0.8L43.57,25.1z M77.1,23.75l-1.1,5.1h1.04
		l1.1-5.1H77.1z M80.54,23.75l-0.38,1.77C80,25.2,79.76,25.09,79.4,25.09c-1.04,0-1.25,1.14-1.399,1.9
		c-0.17,0.75-0.46,1.93,0.6,1.93c0.4,0,0.7-0.12,0.98-0.48l-0.07,0.4h0.98l1.1-5.1h-1.04L80.54,23.75z M79.84,26.98
		c-0.18,0.931-0.33,1.301-0.68,1.301c-0.381,0-0.36-0.37-0.16-1.301c0.149-0.739,0.26-1.25,0.7-1.25c0.42,0,0.3,0.5,0.149,1.25
		H79.84z"/>
</g>
<path fill="#FFFFFF" d="M5.86,7.38l0.07,0.07C7.98,9.1,10.19,8.85,11.7,7.85c1.069-0.7,5.869-3.899,8.6-5.7V0.34H0.04V5.1
	C1.27,4.9,3.44,5.13,5.84,7.38H5.86z M13.2,15.27l-2.4-2.3c-0.34-0.3-0.63-0.52-0.7-0.57C8.17,11.04,6.28,11.5,5.66,11.74
	c-0.24,0.1-0.46,0.229-0.62,0.329l-5,3.33v6.051H20.3V17.1C19.84,17.38,17,18.86,13.2,15.27z M20.29,4.37
	c-2.4,1.6-6.3,4.199-6.78,4.529c-0.7,0.46-2.5,1.7-5.04,0.471L8.84,9.61c0.2,0.181,0.55,0.4,0.8,0.561
	c1.771,1.13,3.601,0.93,5.12-0.08c1.07-0.7,3.7-2.46,5.52-3.67V4.38L20.29,4.37z M20.29,12.94c-0.74,0.5-1.471,0.971-1.761,1.17
	c-0.68,0.471-2.239,1.601-4.869,0.341l0.3,0.3c0.13,0.1,0.27,0.229,0.42,0.35c1.88,1.4,3.87,1.2,5.399,0.2
	c0.171-0.13,0.33-0.23,0.5-0.34V12.94H20.29z M20.29,8.64c-1.67,1.12-3.9,2.601-4.32,2.9c-0.68,0.45-2.3,1.6-4.9,0.37
	c0,0,0.4,0.359,0.44,0.399c2.2,1.7,4.2,1.431,5.7,0.42c0.859-0.569,2.06-1.38,3.06-2.06V8.64H20.29z M5.17,7.98
	C5.07,7.88,4.95,7.81,4.85,7.72C2.65,6.02,0.62,6.8,0.07,7.05V9L1.13,8.3c0,0,1.74-1.3,4.399,0L5.17,7.98z M7.56,10.38
	C5.53,8.74,3.6,9.14,2.8,9.44C2.57,9.54,2.35,9.66,2.2,9.74L1.97,9.9l-1.9,1.271v2.04l3.58-2.4c0,0,1.75-1.3,4.4-0.02
	c0,0-0.4-0.3-0.5-0.4L7.56,10.38z"/>
</svg>
